<?xml version="1.0" encoding="UTF-8" standalone="no"?>
<svg
   version="1.1"
   x="0px"
   y="0px"
   viewBox="0 0 128 128"
   xml:space="preserve"
   id="svg146"
   sodipodi:docname="logo.svg"
   width="128"
   height="128"
   inkscape:version="1.1.2 (0a00cf5339, 2022-02-04)"
   inkscape:export-xdpi="384"
   inkscape:export-ydpi="384"
   xmlns:inkscape="http://www.inkscape.org/namespaces/inkscape"
   xmlns:sodipodi="http://sodipodi.sourceforge.net/DTD/sodipodi-0.dtd"
   xmlns="http://www.w3.org/2000/svg"
   xmlns:svg="http://www.w3.org/2000/svg"><defs
   id="defs150" /><sodipodi:namedview
   id="namedview148"
   pagecolor="#ffffff"
   bordercolor="#666666"
   borderopacity="1.0"
   inkscape:pageshadow="2"
   inkscape:pageopacity="0.0"
   inkscape:pagecheckerboard="0"
   showgrid="false"
   width="128px"
   inkscape:zoom="2.08"
   inkscape:cx="55.048077"
   inkscape:cy="73.557692"
   inkscape:window-width="1366"
   inkscape:window-height="696"
   inkscape:window-x="0"
   inkscape:window-y="0"
   inkscape:window-maximized="1"
   inkscape:current-layer="logo" />

<g id="OBJECTS">
	<g id="g143">
		<g id="logo">
			<path
   style="fill:#71c837;stroke:#000000;stroke-width:0.832998;stroke-opacity:1"
   d="M 66.394454,57.905788 V 79.08144 h 17.44215 c -3.302003,6.90472 -9.73275,12.028492 -17.44215,13.554545 v -8.506579 c -13.577873,0 -24.624264,-11.046388 -24.624264,-24.624261 0,-13.577873 11.046391,-24.623431 24.624264,-24.623431 7.357875,0 14.273427,3.254525 18.9757,8.929742 l 16.305106,-13.5104 C 92.937944,19.754464 80.078118,13.706063 66.393621,13.706063 c -25.254011,0 -45.799915,20.545904 -45.799915,45.799915 0,23.637158 18.000261,43.147642 41.012674,45.549182 v 9.23878 c 25.254008,0 45.79991,-20.545905 45.79991,-45.79991 V 57.905788 Z"
   id="path77" />
		</g>
	</g>
</g>
</svg>
